<svg width="1675" height="495" viewBox="0 0 1675 495" fill="none" xmlns="http://www.w3.org/2000/svg">
<path d="M189.403 449.844L423.883 412.358C429.396 411.476 432.153 411.035 433.362 409.69C434.413 408.52 434.868 406.931 434.594 405.382C434.279 403.601 432.172 401.769 427.958 398.106L373.699 350.939L468.461 241.928C487.246 220.318 496.639 209.513 499.608 197.603C502.22 187.127 501.449 176.092 497.404 166.082C492.806 154.701 482.001 145.308 460.39 126.523L410.126 82.8287L261.697 253.577L207.437 206.41C203.223 202.747 201.116 200.915 199.308 200.851C197.736 200.796 196.226 201.467 195.214 202.671C194.05 204.055 193.997 206.847 193.892 212.429L189.403 449.844Z" fill="#013CFF"/>
<g filter="url(#filter0_d_17_97)">
<path d="M362.85 38.3452L128.371 75.8315C122.858 76.7129 120.101 77.1537 118.891 78.4994C117.84 79.6693 117.386 81.2579 117.66 82.8066C117.975 84.5883 120.082 86.4198 124.296 90.083L178.555 137.25L83.7933 246.261C65.0079 267.871 55.6151 278.676 52.6457 290.586C50.0336 301.062 50.8052 312.097 54.8499 322.107C59.448 333.488 70.2531 342.881 91.8633 361.666L142.128 405.36L290.557 234.612L344.817 281.779C349.031 285.442 351.138 287.274 352.946 287.338C354.518 287.393 356.027 286.722 357.04 285.518C358.204 284.134 358.257 281.342 358.362 275.76L362.85 38.3452Z" fill="#43BBFF"/>
</g>
<path d="M1616.85 342.004V434.886H1674.28V448.367H1601.4V342.004H1616.85Z" fill="#013CFF" stroke="#013CFF" stroke-width="0.298624"/>
<path d="M1505.52 342.004L1505.56 342.092L1553.75 448.156L1553.84 448.367H1537.6L1537.56 448.278L1525.95 421.851H1469.75L1458.14 448.278L1458.1 448.367H1442.16L1442.26 448.156L1490.29 342.092L1490.33 342.004H1505.52ZM1475.21 409.43H1520.49L1497.85 357.905L1475.21 409.43Z" fill="#013CFF" stroke="#013CFF" stroke-width="0.298624"/>
<path d="M1396.23 342.004V448.367H1380.78V342.004H1396.23Z" fill="#013CFF" stroke="#013CFF" stroke-width="0.298624"/>
<path d="M1287.78 340.792C1295.98 340.792 1303.53 342.209 1310.41 345.045L1311.07 345.306C1317.78 348.039 1323.49 352.056 1328.2 357.358L1328.29 357.465L1328.19 357.565L1318.34 367.111L1318.23 367.215L1318.13 367.106C1314.1 362.878 1309.58 359.759 1304.55 357.747L1304.54 357.746C1299.51 355.633 1294.13 354.576 1288.39 354.576C1282.45 354.576 1276.91 355.582 1271.78 357.595L1271.78 357.596C1266.74 359.609 1262.37 362.427 1258.64 366.049C1254.92 369.671 1252 373.998 1249.89 379.031C1247.88 383.96 1246.87 389.345 1246.87 395.186C1246.87 401.025 1247.88 406.46 1249.89 411.49C1252 416.422 1254.92 420.699 1258.64 424.322C1262.37 427.943 1266.74 430.761 1271.78 432.775H1271.78C1276.91 434.788 1282.45 435.795 1288.39 435.795C1294.13 435.795 1299.51 434.788 1304.55 432.776C1309.58 430.663 1314.1 427.443 1318.13 423.114L1318.23 423.003L1318.34 423.11L1328.19 432.656L1328.29 432.755L1328.2 432.862C1323.49 438.163 1317.78 442.228 1311.07 445.056L1310.42 445.325C1303.53 448.162 1295.93 449.578 1287.63 449.578C1279.53 449.578 1272.04 448.263 1265.15 445.629L1265.15 445.628C1258.37 442.894 1252.44 439.096 1247.38 434.234L1247.37 434.232C1242.41 429.269 1238.51 423.495 1235.68 416.912C1232.84 410.326 1231.42 403.083 1231.42 395.186C1231.42 387.289 1232.84 380.046 1235.68 373.459C1238.51 366.876 1242.46 361.152 1247.53 356.289C1252.59 351.326 1258.52 347.527 1265.3 344.894C1272.19 342.159 1279.69 340.792 1287.78 340.792Z" fill="#013CFF" stroke="#013CFF" stroke-width="0.298624"/>
<path d="M1097.62 342.004L1097.67 342.06L1161.04 420.762V342.004H1176.49V448.367H1163.85L1163.8 448.311L1100.43 369.607V448.367H1084.98V342.004H1097.62Z" fill="#013CFF" stroke="#013CFF" stroke-width="0.298624"/>
<path d="M989.698 342.004L989.738 342.092L1037.92 448.156L1038.02 448.367H1021.78L1021.74 448.278L1010.13 421.851H953.926L942.313 448.278L942.274 448.367H926.338L926.434 448.156L974.465 342.092L974.505 342.004H989.698ZM959.384 409.43H1004.67L982.026 357.905L959.384 409.43Z" fill="#013CFF" stroke="#013CFF" stroke-width="0.298624"/>
<path d="M800.346 342.004L800.391 342.06L863.763 420.762V342.004H879.215V448.367H866.569L866.524 448.311L803.151 369.607V448.367H787.701V342.004H800.346Z" fill="#013CFF" stroke="#013CFF" stroke-width="0.298624"/>
<path d="M724.426 342.004V448.367H708.976V342.004H724.426Z" fill="#013CFF" stroke="#013CFF" stroke-width="0.298624"/>
<path d="M656.127 342.004V355.485H596.428V392.158H649.611V405.487H596.428V448.367H580.978V342.004H656.127Z" fill="#013CFF" stroke="#013CFF" stroke-width="0.298624"/>
<path d="M1241.16 273.751C1225.12 273.751 1210.66 270.164 1197.79 262.989C1184.92 255.603 1174.68 245.368 1167.09 232.284C1159.7 219.201 1156.01 203.796 1156.01 186.069C1156.01 168.132 1159.7 152.621 1167.09 139.538C1174.68 126.454 1184.92 116.325 1197.79 109.15C1210.66 101.975 1225.12 98.3873 1241.16 98.3873C1255.51 98.3873 1268.06 101.553 1278.82 107.884C1289.59 114.214 1297.92 123.816 1303.83 136.689C1309.74 149.562 1312.69 166.022 1312.69 186.069C1312.69 205.906 1309.85 222.366 1304.15 235.45C1298.45 248.322 1290.22 257.924 1279.46 264.255C1268.91 270.586 1256.14 273.751 1241.16 273.751ZM1249.7 233.234C1257.72 233.234 1265 231.335 1271.54 227.536C1278.09 223.738 1283.26 218.357 1287.05 211.393C1291.06 204.218 1293.07 195.777 1293.07 186.069C1293.07 176.151 1291.06 167.71 1287.05 160.746C1283.26 153.782 1278.09 148.401 1271.54 144.602C1265 140.804 1257.72 138.905 1249.7 138.905C1241.47 138.905 1234.09 140.804 1227.55 144.602C1221 148.401 1215.73 153.782 1211.72 160.746C1207.92 167.71 1206.02 176.151 1206.02 186.069C1206.02 195.777 1207.92 204.218 1211.72 211.393C1215.73 218.357 1221 223.738 1227.55 227.536C1234.09 231.335 1241.47 233.234 1249.7 233.234ZM1294.34 271.219V236.399L1295.29 185.753L1292.12 135.423V36.3452H1341.5V271.219H1294.34Z" fill="#013CFF"/>
<path d="M1093.42 271.219V237.982L1090.26 230.702V171.192C1090.26 160.64 1086.99 152.41 1080.44 146.502C1074.11 140.593 1064.3 137.638 1051 137.638C1041.93 137.638 1032.96 139.116 1024.1 142.07C1015.45 144.813 1008.06 148.612 1001.94 153.466L984.215 118.963C993.5 112.421 1004.68 107.356 1017.77 103.769C1030.85 100.181 1044.15 98.3873 1057.65 98.3873C1083.61 98.3873 1103.76 104.507 1118.11 116.747C1132.46 128.986 1139.64 148.084 1139.64 174.041V271.219H1093.42ZM1041.51 273.751C1028.21 273.751 1016.82 271.535 1007.32 267.104C997.826 262.461 990.545 256.236 985.481 248.428C980.416 240.62 977.884 231.862 977.884 222.155C977.884 212.026 980.311 203.163 985.164 195.566C990.229 187.969 998.142 182.06 1008.9 177.839C1019.67 173.408 1033.7 171.192 1051 171.192H1096.27V199.997H1056.39C1044.78 199.997 1036.76 201.896 1032.33 205.695C1028.11 209.493 1026 214.241 1026 219.939C1026 226.27 1028.42 231.335 1033.28 235.133C1038.34 238.721 1045.2 240.514 1053.85 240.514C1062.08 240.514 1069.47 238.615 1076.01 234.817C1082.55 230.807 1087.3 225.004 1090.26 217.407L1097.85 240.198C1094.27 251.171 1087.72 259.507 1078.23 265.205C1068.73 270.902 1056.49 273.751 1041.51 273.751Z" fill="#013CFF"/>
<path d="M876.318 273.751C858.169 273.751 842.026 269.953 827.887 262.356C813.959 254.759 802.88 244.418 794.65 231.335C786.631 218.04 782.622 202.951 782.622 186.069C782.622 168.976 786.631 153.888 794.65 140.804C802.88 127.509 813.959 117.169 827.887 109.783C842.026 102.186 858.169 98.3873 876.318 98.3873C894.255 98.3873 910.293 102.186 924.432 109.783C938.571 117.169 949.65 127.404 957.669 140.487C965.688 153.571 969.698 168.765 969.698 186.069C969.698 202.951 965.688 218.04 957.669 231.335C949.65 244.418 938.571 254.759 924.432 262.356C910.293 269.953 894.255 273.751 876.318 273.751ZM876.318 233.234C884.548 233.234 891.934 231.335 898.476 227.536C905.018 223.738 910.188 218.356 913.986 211.393C917.785 204.218 919.684 195.777 919.684 186.069C919.684 176.151 917.785 167.71 913.986 160.746C910.188 153.782 905.018 148.401 898.476 144.602C891.934 140.804 884.548 138.905 876.318 138.905C868.088 138.905 860.702 140.804 854.16 144.602C847.618 148.401 842.342 153.782 838.333 160.746C834.534 167.71 832.635 176.151 832.635 186.069C832.635 195.777 834.534 204.218 838.333 211.393C842.342 218.356 847.618 223.738 854.16 227.536C860.702 231.335 868.088 233.234 876.318 233.234Z" fill="#013CFF"/>
<path d="M581.127 271.219V49.64H677.039C696.876 49.64 713.969 52.9109 728.319 59.4527C742.669 65.7836 753.748 74.9633 761.556 86.9918C769.364 99.0204 773.268 113.37 773.268 130.041C773.268 146.502 769.364 160.746 761.556 172.775C753.748 184.592 742.669 193.666 728.319 199.997C713.969 206.328 696.876 209.493 677.039 209.493H609.616L632.407 187.019V271.219H581.127ZM721.988 271.219L666.593 190.817H721.355L777.383 271.219H721.988ZM632.407 192.717L609.616 168.66H674.19C690.017 168.66 701.835 165.283 709.643 158.53C717.451 151.566 721.355 142.07 721.355 130.041C721.355 117.802 717.451 108.306 709.643 101.553C701.835 94.7999 690.017 91.4234 674.19 91.4234H609.616L632.407 67.0497V192.717Z" fill="#013CFF"/>
<defs>
<filter id="filter0_d_17_97" x="2.47955e-05" y="1.90735e-05" width="439.541" height="494.832" filterUnits="userSpaceOnUse" color-interpolation-filters="sRGB">
<feFlood flood-opacity="0" result="BackgroundImageFix"/>
<feColorMatrix in="SourceAlpha" type="matrix" values="0 0 0 0 0 0 0 0 0 0 0 0 0 0 0 0 0 0 127 0" result="hardAlpha"/>
<feOffset dx="12.7817" dy="25.5635"/>
<feGaussianBlur stdDeviation="31.9543"/>
<feComposite in2="hardAlpha" operator="out"/>
<feColorMatrix type="matrix" values="0 0 0 0 0 0 0 0 0 0 0 0 0 0 0 0 0 0 0.05 0"/>
<feBlend mode="normal" in2="BackgroundImageFix" result="effect1_dropShadow_17_97"/>
<feBlend mode="normal" in="SourceGraphic" in2="effect1_dropShadow_17_97" result="shape"/>
</filter>
</defs>
</svg>
